<svg id="visual" viewBox="0 0 900 600" width="900" height="600" xmlns="http://www.w3.org/2000/svg" xmlns:xlink="http://www.w3.org/1999/xlink" version="1.1"><path d="M0 61L25 57C50 53 100 45 150 49C200 53 250 69 300 79C350 89 400 93 450 93C500 93 550 89 600 88C650 87 700 89 750 90C800 91 850 91 875 91L900 91L900 0L875 0C850 0 800 0 750 0C700 0 650 0 600 0C550 0 500 0 450 0C400 0 350 0 300 0C250 0 200 0 150 0C100 0 50 0 25 0L0 0Z" fill="#9e90fa"></path><path d="M0 211L25 204C50 197 100 183 150 173C200 163 250 157 300 163C350 169 400 187 450 200C500 213 550 221 600 230C650 239 700 249 750 251C800 253 850 247 875 244L900 241L900 89L875 89C850 89 800 89 750 88C700 87 650 85 600 86C550 87 500 91 450 91C400 91 350 87 300 77C250 67 200 51 150 47C100 43 50 51 25 55L0 59Z" fill="#8f7ff8"></path><path d="M0 277L25 272C50 267 100 257 150 248C200 239 250 231 300 229C350 227 400 231 450 239C500 247 550 259 600 269C650 279 700 287 750 294C800 301 850 307 875 310L900 313L900 239L875 242C850 245 800 251 750 249C700 247 650 237 600 228C550 219 500 211 450 198C400 185 350 167 300 161C250 155 200 161 150 171C100 181 50 195 25 202L0 209Z" fill="#816ef5"></path><path d="M0 343L25 344C50 345 100 347 150 344C200 341 250 333 300 331C350 329 400 333 450 339C500 345 550 353 600 357C650 361 700 361 750 371C800 381 850 401 875 411L900 421L900 311L875 308C850 305 800 299 750 292C700 285 650 277 600 267C550 257 500 245 450 237C400 229 350 225 300 227C250 229 200 237 150 246C100 255 50 265 25 270L0 275Z" fill="#715df2"></path><path d="M0 385L25 390C50 395 100 405 150 406C200 407 250 399 300 397C350 395 400 399 450 400C500 401 550 399 600 400C650 401 700 405 750 420C800 435 850 461 875 474L900 487L900 419L875 409C850 399 800 379 750 369C700 359 650 359 600 355C550 351 500 343 450 337C400 331 350 327 300 329C250 331 200 339 150 342C100 345 50 343 25 342L0 341Z" fill="#6652de"></path><path d="M0 415L25 421C50 427 100 439 150 443C200 447 250 443 300 445C350 447 400 455 450 456C500 457 550 451 600 451C650 451 700 457 750 469C800 481 850 499 875 508L900 517L900 485L875 472C850 459 800 433 750 418C700 403 650 399 600 398C550 397 500 399 450 398C400 397 350 393 300 395C250 397 200 405 150 404C100 403 50 393 25 388L0 383Z" fill="#5c48cb"></path><path d="M0 601L25 601C50 601 100 601 150 601C200 601 250 601 300 601C350 601 400 601 450 601C500 601 550 601 600 601C650 601 700 601 750 601C800 601 850 601 875 601L900 601L900 515L875 506C850 497 800 479 750 467C700 455 650 449 600 449C550 449 500 455 450 454C400 453 350 445 300 443C250 441 200 445 150 441C100 437 50 425 25 419L0 413Z" fill="#513eb8"></path></svg>